; Drill file
; Format: 3.2 (000.00)
M48
METRIC
T01C0.2
T02C0.5
T03C1.0
%
G05
G90
T01
X00065Y-01380
X00192Y-01380
X00383Y-01380
X00573Y-01380
X01082Y-01192
X01081Y-00998
X01335Y-00744
X01335Y-00618
X01462Y-00618
X01462Y-00744
X01589Y-00554
X01653Y-00364
X01907Y-00364
X02024Y-00557
X02151Y-00430
X02024Y-00811
X02024Y-01012
X02342Y-01002
X02342Y-00811
X02532Y-00811
X02532Y-01002
X02532Y-01446
X02342Y-01446
X02024Y-01446
X01643Y-01446
X01512Y-00999
X01449Y-00998
X01404Y-00417
X01177Y-00237
X01081Y-00236
X01353Y-00035
X01643Y-00049
X01843Y-00046
X02024Y-00049
X02278Y-00049
X02913Y-00049
X02963Y-00326
X02859Y-00554
X02859Y-00618
X02923Y-00618
X03040Y-00938
X03167Y-01065
X03294Y-00938
X03421Y-01065
X03477Y-01173
X03494Y-01380
X03675Y-01319
X03707Y-01032
X03548Y-00938
X03294Y-01319
X03167Y-01446
X03040Y-01319
X02859Y-01316
X02786Y-01446
X03167Y-00176
X03294Y-00049
X03367Y-00236
X03548Y-00176
X03675Y-00049
X00573Y-00110
X00371Y-00116
X00192Y-00110
X00065Y-00110
T02
X00002Y-01189
X00002Y-01062
X00002Y-00935
X00002Y-00808
X00002Y-00681
X00002Y-00554
X00002Y-00427
X00002Y-00300
T03
X00319Y-01126
X00319Y-00872
X00319Y-00618
X00319Y-00364
X00573Y-00364
X00573Y-00618
X00573Y-00872
X00573Y-01126
M30
